PathFileType	4	(X/Y/Z)	D:\TRACE\spot_10-12-23\spot_arm_motion_2_4-platform.trc
DataRate	CameraRate	NumFrames	NumMarkers	Units	OrigDataRate	OrigDataStartFrame	OrigNumFrames
100.00	100.00	      42	5	mm	100.00	3501	      7000
Frame#	Time	Left_Front			Right_Front			Left_Aft			Right_Aft			Post			
		X1	Y1	Z1	X2	Y2	Z2	X3	Y3	Z3	X4	Y4	Z4	X5	Y5	Z5	

3501	35.000	-768.49072	54.46041	-628.29547	804.24121	58.84283	-621.52246	-685.10565	-28.30348	506.58658	731.97766	-29.87555	592.54077	14.29222	813.40271	-891.68042	
3502	35.010	-769.57739	53.44893	-628.54700	803.06812	57.87667	-621.74536	-686.23761	-27.73340	506.38144	730.99457	-28.91700	592.42395	13.24504	812.05530	-893.45416	
3503	35.020	-770.63995	52.54025	-628.87665	801.83630	56.87078	-622.14319	-687.41113	-26.88437	506.07092	730.08362	-28.13719	592.19043	11.97836	810.53387	-894.92102	
3504	35.030	-771.59491	51.24512	-629.19263	800.81146	55.57697	-622.39130	-688.52081	-26.41503	506.06143	728.83716	-27.29884	592.02271	10.95840	809.25500	-896.54181	
3505	35.040	-772.78882	50.35035	-629.51465	799.84589	54.72001	-622.71924	-689.76208	-25.55501	505.81683	727.88422	-26.44312	591.91156	10.12850	807.68628	-897.99402	
3506	35.050	-774.07166	49.39475	-629.92236	798.73450	53.54189	-622.97278	-690.75287	-24.96780	505.67889	726.48376	-25.69600	591.65906	8.48545	806.10004	-899.83398	
3507	35.060	-775.12000	48.31479	-630.29626	797.58905	52.50411	-623.39594	-691.80707	-23.92794	505.48880	725.55353	-24.61452	591.54095	7.73410	804.73865	-901.24762	
3508	35.070	-776.06152	47.10804	-630.47424	796.53833	51.62864	-623.77789	-692.80609	-23.22316	505.30530	724.60602	-23.55240	591.21130	6.53138	803.08789	-902.70654	
3509	35.080	-777.21503	45.88787	-630.90253	795.38354	50.41306	-624.14545	-693.97516	-22.43812	504.97318	723.40521	-22.68709	590.95752	5.35418	801.42993	-904.39972	
3510	35.090	-778.36353	44.95820	-631.34564	794.27057	49.08878	-624.36255	-694.99652	-21.67931	504.78522	722.35217	-21.79483	590.80707	4.40095	799.67883	-905.67426	
3511	35.100	-779.51056	43.76104	-631.56482	793.24725	47.88581	-624.65521	-696.10815	-20.84726	504.46545	720.86340	-20.89215	590.47253	3.41605	798.17560	-907.41071	
3512	35.110	-780.62964	42.31480	-631.99487	792.01465	46.81657	-625.17328	-697.43121	-19.98701	504.47482	719.96332	-19.89543	590.36273	1.77649	796.59705	-909.14600	
3513	35.120	-781.85791	41.49898	-632.47577	790.74023	45.70968	-625.45703	-698.40289	-19.20275	504.21179	718.72687	-18.94287	589.99939	0.95632	794.81433	-911.04846	
3514	35.130	-782.86560	40.24892	-632.65588	789.73859	44.39635	-625.80774	-699.53790	-18.22088	503.92596	717.68585	-17.72623	589.78937	-0.43624	793.07690	-912.59668	
3515	35.140	-783.84454	38.49869	-632.82477	788.62988	43.16415	-626.13599	-700.62555	-17.69417	503.85034	716.59985	-16.75433	589.62555	-0.96924	791.06805	-914.43927	
3516	35.150	-785.25677	37.50370	-633.44159	787.40015	41.71230	-626.62817	-702.08954	-16.45306	503.20407	715.35956	-15.62439	589.33197	-2.49313	789.40277	-916.26837	
3517	35.160	-786.34393	36.42353	-633.71698	786.39899	40.60914	-626.89471	-703.08923	-15.57088	503.03943	714.21869	-14.76304	589.12817	-3.50634	787.58313	-918.33441	
3518	35.170	-787.40381	34.92733	-634.07898	785.29541	39.32708	-627.20496	-704.27216	-14.57624	502.66388	712.95215	-13.66792	588.74396	-4.66920	785.83502	-920.30432	
3519	35.180	-788.55688	33.57831	-634.52856	784.16797	38.17120	-627.54919	-705.25232	-13.77331	502.51382	712.00922	-12.51639	588.56311	-5.62855	783.83929	-922.03558	
3520	35.190	-789.70416	32.28955	-634.92413	782.98480	36.55872	-628.08197	-706.59814	-12.78298	502.01700	710.82153	-11.44857	588.27863	-6.44022	781.95557	-923.74811	
3521	35.200	-790.86957	31.03867	-635.32300	781.87708	35.31657	-628.34979	-707.50110	-11.91738	501.85846	709.69446	-10.31203	588.03436	-8.07301	780.02692	-925.85449	
3522	35.210	-792.05426	29.71609	-635.73230	780.64844	33.93038	-628.86145	-708.77155	-10.81472	501.64474	708.59772	-9.34536	587.80084	-9.17139	777.96204	-927.86090	
3523	35.220	-793.17065	28.29769	-636.08606	779.69714	32.76282	-628.86066	-709.85016	-10.00909	501.19833	707.24530	-8.13502	587.31689	-10.08551	776.09918	-929.32501	
3524	35.230	-794.31726	26.94481	-636.25629	778.38202	31.35565	-629.43427	-711.04492	-9.16980	500.99188	706.15198	-7.17462	587.04962	-11.00609	774.20605	-931.39825	
3525	35.240	-795.42499	25.58037	-636.66113	777.35089	29.93723	-629.91150	-712.09845	-8.13248	500.66525	705.11322	-5.94496	586.82086	-12.38994	772.28668	-933.31006	
3526	35.250	-796.48132	24.33476	-637.21454	776.30548	28.61146	-630.26538	-713.22198	-7.04033	500.63446	704.01544	-4.89862	586.54608	-13.38028	770.26025	-935.24713	
3527	35.260	-797.56201	22.90595	-637.53076	774.99805	27.03622	-630.43951	-714.40210	-6.28590	500.06198	702.96545	-3.68301	586.35474	-14.89502	768.33868	-937.17981	
3528	35.270	-798.60504	21.22948	-637.66827	774.01630	25.98202	-630.95978	-715.67102	-5.23503	499.60675	701.74146	-2.58050	585.96069	-15.64386	766.02423	-938.87897	
3529	35.280	-800.03308	20.16347	-638.21399	772.93756	24.33589	-631.06952	-716.51416	-4.38063	499.55539	700.68787	-1.47788	585.68433	-16.75621	764.16156	-940.72949	
3530	35.290	-800.88477	18.69527	-638.61957	771.82251	22.98737	-631.60999	-717.85486	-3.14716	499.16385	699.55975	-0.30267	585.36023	-83.48830	784.63416	-923.50836	
3531	35.300	-801.94342	17.28500	-638.97797	770.76752	21.71608	-632.06616	-718.92340	-2.29664	498.92801	698.55261	0.87192	585.12177	-19.12488	759.98218	-944.81470	
3532	35.310	-803.02856	15.79397	-639.24164	769.52948	20.00328	-632.38922	-719.96161	-1.41716	498.57983	697.48291	2.06607	584.60803	-20.07443	757.96698	-946.52814	
3533	35.320	-804.17383	14.25528	-639.65094	768.39240	18.77974	-632.72308	-721.13666	-0.37446	498.12030	696.21515	3.19932	584.28198	-20.82926	755.82568	-948.52295	
3534	35.330	-805.09296	12.86982	-640.05963	767.60327	17.25426	-633.04846	-722.00525	0.58978	498.03534	695.26990	4.34836	584.01221	-22.09289	753.83881	-950.62555	
3535	35.340	-806.37891	11.74304	-640.37439	766.55292	16.09377	-633.34778	-723.22375	1.70818	497.48132	694.05811	5.43425	583.69312	-23.36309	751.62225	-952.59296	
3536	35.350	-807.35370	10.07387	-640.67468	765.38458	14.45042	-633.82367	-724.21753	2.59715	497.34961	693.20428	6.71145	583.44934	-24.47296	749.60315	-954.47498	
3537	35.360	-808.13397	8.47239	-641.15173	764.29041	12.91700	-634.33923	-725.17822	3.48171	497.05145	692.18335	7.81549	583.06122	-25.29411	747.42755	-956.57880	
3538	35.370	-809.36884	7.16181	-641.38660	763.30615	11.71329	-634.44275	-726.19629	4.60822	496.69427	691.07599	9.13745	582.59351	-26.17834	745.28815	-958.54102	
3539	35.380	-810.28845	5.74165	-641.78455	762.29633	10.02122	-634.69470	-727.31097	5.54935	496.19983	690.06445	10.03402	582.30365	-27.19734	743.29230	-960.53766	
3540	35.390	-811.56903	4.66177	-642.06036	761.44537	8.86409	-635.11841	-728.39148	6.49254	495.75885	688.78394	11.29268	581.91846	-28.44325	741.07172	-962.48309	
3541	35.400	-812.49768	3.13280	-642.41376	760.23431	7.38292	-635.56586	-729.35742	7.41987	495.39706	688.04108	12.41355	581.60388	-28.90566	739.04083	-964.28699	
3542	35.410	-813.25409	1.41104	-642.72882	759.16064	6.03005	-635.99268	-730.20526	8.34226	495.21371	687.09167	13.70039	581.31763	-30.26522	736.97577	-966.06146	
